<?xml version="1.0" standalone="no"?>
<!DOCTYPE svg PUBLIC "-//W3C//DTD SVG 20010904//EN"
 "http://www.w3.org/TR/2001/REC-SVG-20010904/DTD/svg10.dtd">
<svg version="1.0" xmlns="http://www.w3.org/2000/svg"
 width="512.000000pt" height="512.000000pt" viewBox="0 0 512.000000 512.000000"
 preserveAspectRatio="xMidYMid meet">
<metadata>
Created by potrace 1.11, written by Peter Selinger 2001-2013
</metadata>
<g transform="translate(0.000000,512.000000) scale(0.100000,-0.100000)"
fill="#000000" stroke="none">
<path d="M805 4580 c-65 -9 -126 -41 -175 -90 -50 -50 -75 -100 -89 -175 -16
-83 -15 -3453 0 -3527 21 -100 85 -180 184 -229 l50 -24 1785 0 1785 0 46 21
c96 45 167 132 188 232 15 74 16 3444 0 3527 -21 112 -77 188 -177 237 l-67
33 -1740 1 c-957 1 -1763 -2 -1790 -6z m2795 -981 c166 -26 322 -107 424 -221
89 -98 162 -269 181 -422 l7 -56 -210 0 -209 0 -12 58 c-25 126 -89 214 -190
260 -73 34 -219 43 -302 18 -154 -44 -248 -176 -290 -406 -17 -92 -14 -446 5
-540 41 -211 139 -346 293 -403 46 -17 80 -21 168 -21 123 1 200 17 270 58
l45 27 0 164 0 165 -202 2 -203 3 0 170 0 170 418 3 417 2 0 -411 0 -410 -57
-60 c-105 -110 -260 -188 -449 -225 -134 -27 -401 -24 -509 5 -194 52 -367
174 -474 334 -81 120 -141 294 -161 464 -16 137 2 525 29 638 63 258 212 460
418 564 56 28 166 63 233 74 52 9 298 6 360 -4z m-2268 -430 l3 -420 350 420
350 420 258 1 c147 0 257 -4 257 -9 0 -5 -88 -114 -196 -243 -108 -128 -240
-285 -292 -348 -53 -63 -136 -161 -184 -218 l-88 -103 45 -62 c25 -34 102
-143 172 -242 70 -99 170 -241 223 -315 198 -278 360 -509 360 -514 0 -3 -114
-6 -254 -6 l-255 0 -172 248 c-95 136 -220 315 -277 397 -58 83 -110 156 -117
163 -10 11 -28 -4 -98 -79 l-87 -92 0 -318 0 -319 -215 0 -215 0 0 1023 c0
563 3 1027 7 1030 3 4 100 7 215 7 l208 0 2 -421z"/>
</g>
</svg>
